<?xml version="1.0" encoding="utf-8"?>
<!-- Generator: Adobe Illustrator 16.0.0, SVG Export Plug-In . SVG Version: 6.00 Build 0)  -->
<!DOCTYPE svg PUBLIC "-//W3C//DTD SVG 1.1//EN" "http://www.w3.org/Graphics/SVG/1.1/DTD/svg11.dtd">
<svg version="1.1" id="Layer_1" xmlns="http://www.w3.org/2000/svg" xmlns:xlink="http://www.w3.org/1999/xlink" x="0px" y="0px"
	 width="268.667px" height="116.154px" viewBox="0 0 268.667 116.154" enable-background="new 0 0 268.667 116.154"
	 xml:space="preserve">
<g>
	<g>
		<path fill="#8D5524" d="M38.374,53.498c0.58,1.017,0.943,2.323,0.943,3.63c0,1.162-0.29,2.25-0.799,3.195L20.876,90.597
			c-0.653,1.017-1.452,1.452-2.323,1.452c-0.581,0-1.234-0.217-1.815-0.507c-0.943-0.509-1.597-1.234-1.597-2.179
			c0-0.436,0.145-1.016,0.508-1.524l16.844-28.822c0.29-0.653,0.508-1.308,0.508-1.96c0-0.726-0.218-1.379-0.508-2.033
			l-16.844-28.75c-0.363-0.581-0.508-1.089-0.508-1.597c0-0.944,0.653-1.67,1.597-2.178c0.581-0.291,1.162-0.508,1.742-0.508
			c0.944,0,1.743,0.436,2.396,1.524L38.374,53.498z"/>
	</g>
	<g>
		<path fill="#C68642" d="M103.853,92.42h-9v-1.44h7.56V22.435h-7.56v-1.44h9V92.42z"/>
	</g>
	<g>
		<path fill="#FFDBAC" d="M74.788,91.76c1.69-6.004,2.855-12.211,3.497-18.623c0.641-6.411,0.962-12.853,0.962-19.323
			c0-6.003-0.394-11.73-1.18-17.181c-0.787-5.449-1.88-10.739-3.279-15.869h2.973c1.749,2.623,3.279,5.377,4.591,8.263
			s2.404,5.902,3.278,9.049c0.815,3.147,1.442,6.267,1.88,9.355c0.438,3.09,0.656,6.033,0.656,8.831c0,2.973-0.234,6.033-0.7,9.181
			c-0.467,3.147-1.137,6.295-2.011,9.443c-1.866,6.295-4.431,11.919-7.694,16.874H74.788z"/>
	</g>
	<g>
		<path fill="#E0AC69" d="M66.068,63.474c-0.377,0-0.795,0.04-1.252,0.121c-0.458,0.08-0.876,0.242-1.252,0.484
			c-0.377,0.242-0.687,0.62-0.929,1.131c-0.242,0.513-0.363,1.172-0.363,1.979v11.633c0,8.831-4.013,13.248-12.037,13.248h-9.37
			V78.418h6.059c0.484,0,0.794-0.147,0.929-0.444c0.134-0.295,0.202-0.605,0.202-0.929V65.574c0-1.723,0.255-3.136,0.768-4.24
			c0.511-1.104,1.09-1.979,1.736-2.626c0.754-0.753,1.616-1.319,2.585-1.696c-0.969-0.376-1.831-0.941-2.585-1.696
			c-0.646-0.646-1.226-1.521-1.736-2.625c-0.513-1.103-0.768-2.517-0.768-4.241V36.978c0-0.323-0.068-0.633-0.202-0.929
			c-0.135-0.295-0.444-0.444-0.929-0.444h-6.059V21.952h9.37c8.024,0,12.037,4.417,12.037,13.249v11.632
			c0,0.808,0.121,1.468,0.363,1.979c0.242,0.512,0.552,0.889,0.929,1.131c0.376,0.242,0.794,0.404,1.252,0.485
			c0.457,0.081,0.875,0.121,1.252,0.121h1.777v12.925H66.068z"/>
	</g>
	<line fill="none" stroke="#BD947A" stroke-width="3" stroke-miterlimit="10" x1="10.983" y1="12.01" x2="103.983" y2="12.01"/>
	<line fill="none" stroke="#BD947A" stroke-width="3" stroke-miterlimit="10" x1="10.983" y1="101.01" x2="103.983" y2="101.01"/>
	<g>
		<path fill="#8D5524" d="M150.898,21.842l-5.889,24.872h-4.415l-2.747-14.766h-0.098l-2.747,14.766h-4.416l-5.887-24.872H130
			l3.041,15.453h0.099l2.796-15.453h3.925l2.648,15.453h0.099l2.993-15.453H150.898z"/>
		<path fill="#8D5524" d="M167.184,36.167h-9.908v3.385c0,0.785,0.221,1.391,0.662,1.815c0.441,0.425,1.037,0.638,1.789,0.638
			c0.949,0,1.578-0.277,1.889-0.834c0.311-0.556,0.5-1.111,0.564-1.668h5.004c0,2.191-0.67,3.958-2.012,5.298
			c-0.654,0.687-1.439,1.226-2.354,1.619c-0.916,0.393-1.947,0.589-3.092,0.589c-1.568,0-2.902-0.327-3.998-0.981
			c-1.096-0.654-1.938-1.521-2.525-2.6c-0.361-0.654-0.605-1.406-0.736-2.257c-0.131-0.85-0.195-1.782-0.195-2.796v-8.192
			c0-1.014,0.064-1.945,0.195-2.796c0.131-0.85,0.375-1.602,0.736-2.257c0.588-1.079,1.43-1.945,2.525-2.6s2.43-0.981,3.998-0.981
			c1.145,0,2.184,0.196,3.115,0.589c0.934,0.393,1.725,0.932,2.381,1.619c1.307,1.472,1.961,3.32,1.961,5.543V36.167z
			 M157.275,32.243h4.904v-2.846c0-0.948-0.221-1.659-0.662-2.134c-0.441-0.474-1.039-0.711-1.791-0.711s-1.348,0.238-1.789,0.711
			c-0.441,0.475-0.662,1.186-0.662,2.134V32.243z"/>
		<path fill="#FFDBAC" d="M189.455,46.714v-2.551h-0.098c-0.654,0.916-1.316,1.619-1.986,2.109c-0.672,0.49-1.611,0.736-2.82,0.736
			c-0.59,0-1.188-0.09-1.791-0.27c-0.605-0.179-1.186-0.515-1.742-1.005c-0.557-0.458-1.006-1.12-1.35-1.987
			c-0.342-0.866-0.514-1.987-0.514-3.361c0-1.406,0.113-2.641,0.344-3.704c0.227-1.062,0.652-1.954,1.275-2.674
			c0.588-0.687,1.389-1.202,2.402-1.545c1.014-0.344,2.307-0.515,3.877-0.515c0.162,0,0.342,0,0.539,0
			c0.195,0,0.375,0.017,0.539,0.049c0.164,0.033,0.359,0.049,0.59,0.049c0.229,0,0.473,0.017,0.734,0.049v-2.6
			c0-0.85-0.18-1.553-0.539-2.109c-0.359-0.556-1.014-0.834-1.963-0.834c-0.654,0-1.25,0.213-1.789,0.638
			c-0.541,0.425-0.893,1.047-1.055,1.864h-4.857c0.131-2.224,0.883-4.022,2.256-5.396c0.654-0.654,1.439-1.169,2.355-1.545
			s1.945-0.564,3.09-0.564c1.047,0,2.027,0.164,2.943,0.491c0.916,0.327,1.717,0.818,2.404,1.472
			c0.654,0.655,1.178,1.472,1.57,2.453c0.393,0.981,0.588,2.126,0.588,3.434v17.317H189.455z M189.455,36.02
			c-0.557-0.098-1.014-0.147-1.373-0.147c-1.08,0-2.004,0.254-2.771,0.761c-0.77,0.507-1.152,1.431-1.152,2.771
			c0,0.949,0.229,1.717,0.686,2.306c0.459,0.589,1.096,0.883,1.914,0.883c0.85,0,1.512-0.278,1.986-0.834s0.711-1.341,0.711-2.355
			V36.02z"/>
		<path fill="#FFDBAC" d="M198.139,46.714V21.842h5.004v2.649c1.014-0.915,2.012-1.635,2.992-2.158
			c0.982-0.523,2.191-0.785,3.631-0.785v5.298c-0.49-0.196-0.998-0.294-1.521-0.294s-1.088,0.09-1.691,0.27
			c-0.605,0.18-1.152,0.483-1.645,0.907c-0.523,0.426-0.947,0.981-1.275,1.668c-0.326,0.687-0.49,1.538-0.49,2.551v14.766H198.139z"
			/>
		<path fill="#FFDBAC" d="M226.248,36.167h-9.908v3.385c0,0.785,0.221,1.391,0.662,1.815c0.441,0.425,1.037,0.638,1.789,0.638
			c0.949,0,1.578-0.277,1.889-0.834c0.311-0.556,0.5-1.111,0.564-1.668h5.004c0,2.191-0.67,3.958-2.012,5.298
			c-0.654,0.687-1.439,1.226-2.354,1.619c-0.916,0.393-1.947,0.589-3.092,0.589c-1.568,0-2.902-0.327-3.998-0.981
			c-1.096-0.654-1.938-1.521-2.525-2.6c-0.361-0.654-0.605-1.406-0.736-2.257c-0.131-0.85-0.195-1.782-0.195-2.796v-8.192
			c0-1.014,0.064-1.945,0.195-2.796c0.131-0.85,0.375-1.602,0.736-2.257c0.588-1.079,1.43-1.945,2.525-2.6s2.43-0.981,3.998-0.981
			c1.145,0,2.184,0.196,3.115,0.589c0.934,0.393,1.725,0.932,2.381,1.619c1.307,1.472,1.961,3.32,1.961,5.543V36.167z
			 M216.34,32.243h4.904v-2.846c0-0.948-0.221-1.659-0.662-2.134c-0.441-0.474-1.039-0.711-1.791-0.711s-1.348,0.238-1.789,0.711
			c-0.441,0.475-0.662,1.186-0.662,2.134V32.243z"/>
		<path fill="#E0AC69" d="M126.712,92.092V57.164h5.004v12.313h0.098c0.556-0.817,1.219-1.447,1.987-1.889
			c0.768-0.441,1.644-0.662,2.624-0.662c1.21,0,2.15,0.213,2.821,0.638c0.67,0.425,1.218,0.965,1.644,1.618
			c0.326,0.523,0.539,1.211,0.638,2.061c0.098,0.852,0.146,2.176,0.146,3.974v9.469c0,1.373-0.065,2.47-0.195,3.286
			c-0.132,0.818-0.344,1.505-0.639,2.061c-0.851,1.57-2.306,2.355-4.365,2.355c-1.244,0-2.192-0.246-2.846-0.736
			c-0.654-0.49-1.292-1.096-1.913-1.815v2.256H126.712z M136.671,74.874c0-0.785-0.172-1.472-0.516-2.061s-0.989-0.883-1.938-0.883
			c-0.72,0-1.317,0.253-1.791,0.76c-0.475,0.508-0.711,1.153-0.711,1.938v9.665c0,0.916,0.229,1.66,0.687,2.231
			c0.458,0.573,1.062,0.858,1.815,0.858c0.85,0,1.472-0.31,1.864-0.932c0.393-0.621,0.589-1.438,0.589-2.453V74.874z"/>
		<path fill="#E0AC69" d="M160.268,81.545h-9.91v3.385c0,0.784,0.221,1.391,0.662,1.814c0.441,0.426,1.039,0.638,1.791,0.638
			c0.947,0,1.578-0.277,1.889-0.834c0.311-0.556,0.498-1.111,0.564-1.668h5.004c0,2.192-0.672,3.958-2.012,5.299
			c-0.654,0.687-1.439,1.227-2.355,1.619c-0.916,0.391-1.945,0.588-3.09,0.588c-1.57,0-2.902-0.326-3.998-0.981
			c-1.096-0.654-1.938-1.521-2.527-2.601c-0.359-0.653-0.605-1.405-0.734-2.257c-0.133-0.85-0.197-1.781-0.197-2.796V75.56
			c0-1.014,0.064-1.945,0.197-2.796c0.129-0.851,0.375-1.603,0.734-2.257c0.59-1.079,1.432-1.945,2.527-2.601
			c1.096-0.653,2.428-0.98,3.998-0.98c1.145,0,2.184,0.196,3.115,0.588c0.932,0.393,1.725,0.933,2.379,1.619
			c1.309,1.472,1.963,3.32,1.963,5.544V81.545z M150.357,77.621h4.906v-2.846c0-0.948-0.221-1.659-0.662-2.134
			c-0.441-0.474-1.039-0.711-1.791-0.711s-1.35,0.237-1.791,0.711c-0.441,0.475-0.662,1.186-0.662,2.134V77.621z"/>
		<path fill="#E0AC69" d="M173.414,92.092v-2.55h-0.098c-0.654,0.916-1.316,1.619-1.986,2.109c-0.672,0.49-1.611,0.736-2.82,0.736
			c-0.59,0-1.188-0.09-1.791-0.27c-0.605-0.18-1.186-0.515-1.742-1.006c-0.557-0.457-1.006-1.119-1.35-1.986
			c-0.342-0.866-0.514-1.987-0.514-3.36c0-1.406,0.113-2.641,0.344-3.704c0.227-1.062,0.652-1.954,1.275-2.674
			c0.588-0.687,1.389-1.202,2.402-1.545c1.014-0.344,2.307-0.516,3.877-0.516c0.162,0,0.342,0,0.539,0
			c0.195,0,0.375,0.018,0.539,0.05s0.359,0.049,0.59,0.049c0.229,0,0.473,0.017,0.734,0.049v-2.6c0-0.851-0.18-1.554-0.539-2.109
			c-0.359-0.557-1.014-0.834-1.963-0.834c-0.654,0-1.25,0.213-1.789,0.638c-0.541,0.425-0.893,1.047-1.055,1.863h-4.857
			c0.131-2.224,0.883-4.022,2.256-5.396c0.654-0.654,1.439-1.169,2.355-1.546c0.916-0.375,1.945-0.563,3.09-0.563
			c1.047,0,2.027,0.164,2.943,0.49c0.916,0.327,1.717,0.817,2.404,1.472c0.654,0.654,1.178,1.472,1.57,2.453
			c0.393,0.98,0.588,2.126,0.588,3.434v17.317H173.414z M173.414,81.398c-0.557-0.099-1.014-0.147-1.373-0.147
			c-1.08,0-2.004,0.254-2.771,0.761c-0.77,0.507-1.152,1.431-1.152,2.771c0,0.949,0.229,1.717,0.686,2.306
			c0.459,0.589,1.096,0.883,1.914,0.883c0.85,0,1.512-0.277,1.986-0.834c0.475-0.556,0.711-1.341,0.711-2.354V81.398z"/>
		<path fill="#E0AC69" d="M197.059,67.22v24.872h-5.002v-2.404h-0.1c-0.523,0.785-1.152,1.432-1.889,1.938
			c-0.736,0.506-1.676,0.76-2.82,0.76c-0.621,0-1.244-0.107-1.863-0.318c-0.623-0.213-1.178-0.565-1.668-1.055
			c-0.492-0.491-0.885-1.12-1.178-1.889c-0.295-0.769-0.441-1.709-0.441-2.821V67.22h5.004v17.219c0,0.916,0.211,1.636,0.637,2.159
			s1.031,0.784,1.816,0.784c0.947,0,1.602-0.294,1.961-0.883s0.541-1.438,0.541-2.551V67.22H197.059z"/>
		<path fill="#E0AC69" d="M201.18,67.22v-7.555h5.004v7.555h3.092v3.925h-3.092V84.93c0,0.589,0.057,1.047,0.172,1.373
			c0.115,0.327,0.303,0.573,0.564,0.736c0.262,0.164,0.58,0.262,0.957,0.294c0.375,0.033,0.842,0.049,1.398,0.049v4.709h-2.061
			c-1.146,0-2.104-0.179-2.871-0.54c-0.768-0.359-1.381-0.816-1.84-1.373c-0.457-0.556-0.793-1.186-1.006-1.889
			s-0.318-1.382-0.318-2.036V71.145h-2.502V67.22H201.18z"/>
		<path fill="#E0AC69" d="M211.188,62.167v-5.004h5.004v5.004H211.188z M211.188,92.092V67.22h5.004v24.872H211.188z"/>
		<path fill="#E0AC69" d="M220.949,92.092V71.145h-2.453V67.22h2.453v-3.385c0-1.21,0.18-2.232,0.539-3.066
			c0.361-0.834,0.852-1.528,1.473-2.085c0.588-0.556,1.268-0.948,2.035-1.177c0.77-0.229,1.562-0.343,2.381-0.343h2.305v4.709
			h-2.256c-0.982,0-1.473,0.573-1.473,1.718v3.63h3.729v3.925h-3.729v20.947H220.949z"/>
		<path fill="#E0AC69" d="M246.164,67.22v24.872h-5.004v-2.404h-0.098c-0.523,0.785-1.152,1.432-1.889,1.938
			c-0.736,0.506-1.678,0.76-2.82,0.76c-0.623,0-1.244-0.107-1.865-0.318c-0.621-0.213-1.178-0.565-1.668-1.055
			c-0.49-0.491-0.883-1.12-1.178-1.889c-0.293-0.769-0.441-1.709-0.441-2.821V67.22h5.004v17.219c0,0.916,0.213,1.636,0.639,2.159
			c0.424,0.523,1.029,0.784,1.814,0.784c0.947,0,1.602-0.294,1.963-0.883c0.359-0.589,0.539-1.438,0.539-2.551V67.22H246.164z"/>
		<path fill="#E0AC69" d="M249.99,57.164h5.004v27.913c0,0.949,0.172,1.595,0.516,1.938c0.344,0.343,0.988,0.563,1.938,0.662v4.709
			c-1.146,0-2.176-0.09-3.092-0.27c-0.916-0.18-1.699-0.532-2.354-1.055c-0.654-0.49-1.152-1.185-1.496-2.085
			c-0.344-0.899-0.516-2.085-0.516-3.557V57.164z"/>
	</g>
</g>
</svg>
