<?xml version="1.0" encoding="utf-8"?>
<!-- Generator: Adobe Illustrator 16.0.0, SVG Export Plug-In . SVG Version: 6.00 Build 0)  -->
<!DOCTYPE svg PUBLIC "-//W3C//DTD SVG 1.1//EN" "http://www.w3.org/Graphics/SVG/1.1/DTD/svg11.dtd">
<svg version="1.1" id="Layer_1" xmlns="http://www.w3.org/2000/svg" xmlns:xlink="http://www.w3.org/1999/xlink" x="0px" y="0px"
	 width="654.565px" height="139px" viewBox="0 0 654.565 139" enable-background="new 0 0 654.565 139" xml:space="preserve">
<g>
	<path fill="#8D5524" d="M44.374,68.498c0.58,1.017,0.943,2.323,0.943,3.63c0,1.162-0.29,2.25-0.799,3.195l-17.642,30.274
		c-0.653,1.017-1.452,1.452-2.323,1.452c-0.581,0-1.234-0.217-1.815-0.507c-0.943-0.509-1.597-1.234-1.597-2.179
		c0-0.436,0.145-1.016,0.508-1.524l16.844-28.822c0.29-0.653,0.508-1.308,0.508-1.96c0-0.726-0.218-1.379-0.508-2.033l-16.844-28.75
		c-0.363-0.581-0.508-1.089-0.508-1.597c0-0.944,0.653-1.67,1.597-2.178c0.581-0.291,1.162-0.508,1.742-0.508
		c0.944,0,1.743,0.436,2.396,1.524L44.374,68.498z"/>
</g>
<g>
	<path fill="#C68642" d="M109.853,107.42h-9v-1.44h7.56V37.435h-7.56v-1.44h9V107.42z"/>
</g>
<g>
	<path fill="#FFDBAC" d="M80.788,106.76c1.69-6.004,2.855-12.211,3.497-18.623c0.641-6.411,0.962-12.853,0.962-19.323
		c0-6.003-0.394-11.73-1.18-17.181c-0.787-5.449-1.88-10.739-3.279-15.869h2.973c1.749,2.623,3.279,5.377,4.591,8.263
		s2.404,5.902,3.278,9.049c0.815,3.147,1.442,6.267,1.88,9.355c0.438,3.09,0.656,6.033,0.656,8.831c0,2.973-0.234,6.033-0.7,9.181
		c-0.467,3.147-1.137,6.295-2.011,9.443c-1.866,6.295-4.431,11.919-7.694,16.874H80.788z"/>
</g>
<g>
	<path fill="#E0AC69" d="M72.068,78.474c-0.377,0-0.795,0.04-1.252,0.121c-0.458,0.08-0.876,0.242-1.252,0.484
		c-0.377,0.242-0.687,0.62-0.929,1.131c-0.242,0.513-0.363,1.172-0.363,1.979v11.633c0,8.831-4.013,13.248-12.037,13.248h-9.37
		V93.418h6.059c0.484,0,0.794-0.147,0.929-0.444c0.134-0.295,0.202-0.605,0.202-0.929V80.574c0-1.723,0.255-3.136,0.768-4.24
		c0.511-1.104,1.09-1.979,1.736-2.626c0.754-0.753,1.616-1.319,2.585-1.696c-0.969-0.376-1.831-0.941-2.585-1.696
		c-0.646-0.646-1.226-1.521-1.736-2.625c-0.513-1.103-0.768-2.517-0.768-4.241V51.978c0-0.323-0.068-0.633-0.202-0.929
		c-0.135-0.295-0.444-0.444-0.929-0.444h-6.059V36.952h9.37c8.024,0,12.037,4.417,12.037,13.249v11.632
		c0,0.808,0.121,1.468,0.363,1.979c0.242,0.512,0.552,0.889,0.929,1.131c0.376,0.242,0.794,0.404,1.252,0.485
		c0.457,0.081,0.875,0.121,1.252,0.121h1.777v12.925H72.068z"/>
</g>
<line fill="none" stroke="#BD947A" stroke-width="3" stroke-miterlimit="10" x1="16.983" y1="27.01" x2="109.983" y2="27.01"/>
<line fill="none" stroke="#BD947A" stroke-width="3" stroke-miterlimit="10" x1="16.983" y1="116.01" x2="109.983" y2="116.01"/>
<text transform="matrix(1 0 0 1 147.9609 306.8975)" fill="#8D5524" font-family="'DINCondensed-Bold'" font-size="71.1772">we</text>
<text transform="matrix(1 0 0 1 147.9609 342.0068)" fill="#FFDBAC" font-family="'DINCondensed-Bold'" font-size="63.751">are</text>
<text transform="matrix(1 0 0 1 221.1289 341.1094)" fill="#E0AC69" font-family="'DINCondensed-Bold'" font-size="99.3716">beautiful</text>
<g>
	<path fill="#8D5524" d="M182.551,46.705l-12.254,51.773h-9.189l-5.719-30.737h-0.205l-5.718,30.737h-9.19l-12.254-51.773h11.029
		l6.331,32.167h0.205l5.82-32.167h8.17l5.514,32.167h0.203l6.23-32.167H182.551z"/>
	<path fill="#8D5524" d="M216.454,76.523h-20.627v7.046c0,1.634,0.459,2.894,1.378,3.778c0.919,0.886,2.16,1.328,3.728,1.328
		c1.974,0,3.283-0.578,3.932-1.736c0.646-1.157,1.037-2.313,1.174-3.472h10.416c0,4.562-1.396,8.238-4.187,11.029
		c-1.363,1.43-2.997,2.553-4.901,3.37c-1.907,0.817-4.052,1.226-6.434,1.226c-3.268,0-6.043-0.68-8.322-2.042
		c-2.282-1.361-4.034-3.166-5.26-5.412c-0.749-1.361-1.26-2.926-1.531-4.697c-0.272-1.77-0.408-3.71-0.408-5.821V64.065
		c0-2.109,0.136-4.049,0.408-5.821c0.271-1.769,0.782-3.334,1.531-4.697c1.226-2.247,2.978-4.049,5.26-5.412
		c2.279-1.361,5.055-2.042,8.322-2.042c2.382,0,4.544,0.408,6.484,1.225s3.59,1.94,4.952,3.37c2.723,3.063,4.085,6.91,4.085,11.539
		V76.523z M195.827,68.354h10.211v-5.923c0-1.974-0.459-3.455-1.378-4.442c-0.92-0.986-2.162-1.481-3.728-1.481
		c-1.567,0-2.809,0.495-3.728,1.481c-0.919,0.987-1.378,2.468-1.378,4.442V68.354z"/>
	<path fill="#FFDBAC" d="M262.812,98.478v-5.31h-0.204c-1.362,1.907-2.741,3.37-4.136,4.391c-1.396,1.021-3.354,1.532-5.871,1.532
		c-1.226,0-2.469-0.188-3.728-0.562c-1.261-0.374-2.469-1.072-3.625-2.094c-1.158-0.952-2.094-2.331-2.809-4.136
		c-0.715-1.803-1.072-4.135-1.072-6.995c0-2.926,0.238-5.497,0.715-7.71c0.476-2.211,1.361-4.067,2.655-5.565
		c1.226-1.429,2.893-2.501,5.004-3.216c2.109-0.715,4.799-1.072,8.066-1.072c0.34,0,0.715,0,1.124,0
		c0.408,0,0.781,0.035,1.123,0.102c0.34,0.068,0.748,0.102,1.226,0.102c0.476,0,0.985,0.035,1.531,0.102v-5.412
		c0-1.77-0.375-3.232-1.123-4.391c-0.75-1.157-2.111-1.736-4.085-1.736c-1.362,0-2.604,0.444-3.727,1.328
		c-1.124,0.885-1.856,2.18-2.196,3.88h-10.109c0.271-4.629,1.839-8.374,4.697-11.233c1.361-1.361,2.995-2.433,4.902-3.216
		c1.904-0.782,4.049-1.174,6.433-1.174c2.178,0,4.221,0.341,6.127,1.021c1.905,0.681,3.574,1.703,5.004,3.063
		c1.361,1.362,2.451,3.063,3.268,5.106c0.817,2.042,1.226,4.426,1.226,7.148v36.047H262.812z M262.812,76.217
		c-1.158-0.204-2.11-0.306-2.859-0.306c-2.246,0-4.171,0.528-5.77,1.583c-1.6,1.056-2.399,2.979-2.399,5.77
		c0,1.976,0.476,3.574,1.43,4.799c0.952,1.226,2.28,1.838,3.982,1.838c1.77,0,3.148-0.578,4.136-1.736
		c0.986-1.157,1.48-2.791,1.48-4.902V76.217z"/>
	<path fill="#FFDBAC" d="M280.887,98.478V46.705h10.416v5.515c2.109-1.905,4.187-3.403,6.229-4.493
		c2.043-1.088,4.561-1.634,7.557-1.634v11.028c-1.021-0.409-2.077-0.613-3.165-0.613c-1.09,0-2.265,0.188-3.523,0.562
		c-1.261,0.375-2.399,1.005-3.421,1.889c-1.09,0.886-1.976,2.042-2.655,3.472c-0.681,1.43-1.021,3.201-1.021,5.31v30.737H280.887z"
		/>
	<path fill="#FFDBAC" d="M339.399,76.523h-20.627v7.046c0,1.634,0.459,2.894,1.378,3.778c0.919,0.886,2.16,1.328,3.728,1.328
		c1.974,0,3.283-0.578,3.932-1.736c0.646-1.157,1.037-2.313,1.174-3.472h10.416c0,4.562-1.396,8.238-4.187,11.029
		c-1.363,1.43-2.997,2.553-4.901,3.37c-1.907,0.817-4.052,1.226-6.434,1.226c-3.268,0-6.043-0.68-8.322-2.042
		c-2.282-1.361-4.034-3.166-5.26-5.412c-0.749-1.361-1.26-2.926-1.531-4.697c-0.272-1.77-0.408-3.71-0.408-5.821V64.065
		c0-2.109,0.136-4.049,0.408-5.821c0.271-1.769,0.782-3.334,1.531-4.697c1.226-2.247,2.978-4.049,5.26-5.412
		c2.279-1.361,5.055-2.042,8.322-2.042c2.382,0,4.544,0.408,6.484,1.225s3.59,1.94,4.952,3.37c2.723,3.063,4.085,6.91,4.085,11.539
		V76.523z M318.772,68.354h10.211v-5.923c0-1.974-0.459-3.455-1.378-4.442c-0.92-0.986-2.162-1.481-3.728-1.481
		c-1.567,0-2.809,0.495-3.728,1.481c-0.919,0.987-1.378,2.468-1.378,4.442V68.354z"/>
	<path fill="#E0AC69" d="M366.05,98.478V25.771h10.416v25.631h0.204c1.156-1.701,2.535-3.012,4.136-3.931
		c1.599-0.919,3.421-1.378,5.463-1.378c2.518,0,4.476,0.443,5.872,1.327c1.395,0.886,2.535,2.009,3.421,3.37
		c0.68,1.09,1.123,2.519,1.327,4.289c0.204,1.771,0.307,4.528,0.307,8.271v19.708c0,2.859-0.138,5.141-0.409,6.842
		c-0.272,1.702-0.715,3.132-1.327,4.289c-1.771,3.268-4.8,4.902-9.088,4.902c-2.589,0-4.562-0.511-5.923-1.532
		c-1.363-1.021-2.69-2.28-3.982-3.778v4.697H366.05z M386.779,62.635c0-1.634-0.357-3.063-1.072-4.289
		c-0.715-1.226-2.06-1.838-4.033-1.838c-1.499,0-2.741,0.528-3.728,1.583c-0.988,1.056-1.48,2.399-1.48,4.033v20.117
		c0,1.907,0.475,3.456,1.43,4.646c0.952,1.192,2.211,1.787,3.778,1.787c1.769,0,3.063-0.646,3.88-1.94
		c0.817-1.292,1.226-2.995,1.226-5.106V62.635z"/>
	<path fill="#E0AC69" d="M435.896,76.523H415.27v7.046c0,1.634,0.459,2.894,1.378,3.778c0.919,0.886,2.16,1.328,3.728,1.328
		c1.974,0,3.283-0.578,3.932-1.736c0.646-1.157,1.037-2.313,1.174-3.472h10.416c0,4.562-1.396,8.238-4.187,11.029
		c-1.363,1.43-2.997,2.553-4.901,3.37c-1.907,0.817-4.052,1.226-6.434,1.226c-3.268,0-6.043-0.68-8.322-2.042
		c-2.282-1.361-4.034-3.166-5.26-5.412c-0.749-1.361-1.26-2.926-1.531-4.697c-0.272-1.77-0.408-3.71-0.408-5.821V64.065
		c0-2.109,0.136-4.049,0.408-5.821c0.271-1.769,0.782-3.334,1.531-4.697c1.226-2.247,2.978-4.049,5.26-5.412
		c2.279-1.361,5.055-2.042,8.322-2.042c2.382,0,4.544,0.408,6.484,1.225s3.59,1.94,4.952,3.37c2.723,3.063,4.085,6.91,4.085,11.539
		V76.523z M415.27,68.354h10.211v-5.923c0-1.974-0.459-3.455-1.378-4.442c-0.92-0.986-2.162-1.481-3.728-1.481
		c-1.567,0-2.809,0.495-3.728,1.481c-0.919,0.987-1.378,2.468-1.378,4.442V68.354z"/>
	<path fill="#E0AC69" d="M463.263,98.478v-5.31h-0.204c-1.362,1.907-2.741,3.37-4.136,4.391c-1.396,1.021-3.354,1.532-5.871,1.532
		c-1.226,0-2.469-0.188-3.728-0.562c-1.261-0.374-2.469-1.072-3.625-2.094c-1.158-0.952-2.094-2.331-2.809-4.136
		c-0.715-1.803-1.072-4.135-1.072-6.995c0-2.926,0.238-5.497,0.715-7.71c0.476-2.211,1.361-4.067,2.655-5.565
		c1.226-1.429,2.893-2.501,5.004-3.216c2.109-0.715,4.799-1.072,8.066-1.072c0.34,0,0.715,0,1.124,0
		c0.408,0,0.781,0.035,1.123,0.102c0.34,0.068,0.748,0.102,1.226,0.102c0.476,0,0.985,0.035,1.531,0.102v-5.412
		c0-1.77-0.375-3.232-1.123-4.391c-0.75-1.157-2.111-1.736-4.085-1.736c-1.362,0-2.604,0.444-3.727,1.328
		c-1.124,0.885-1.856,2.18-2.196,3.88h-10.109c0.271-4.629,1.839-8.374,4.697-11.233c1.361-1.361,2.995-2.433,4.902-3.216
		c1.904-0.782,4.049-1.174,6.433-1.174c2.178,0,4.221,0.341,6.127,1.021c1.905,0.681,3.574,1.703,5.004,3.063
		c1.361,1.362,2.451,3.063,3.268,5.106c0.817,2.042,1.226,4.426,1.226,7.148v36.047H463.263z M463.263,76.217
		c-1.158-0.204-2.11-0.306-2.859-0.306c-2.246,0-4.171,0.528-5.77,1.583c-1.6,1.056-2.399,2.979-2.399,5.77
		c0,1.976,0.476,3.574,1.43,4.799c0.952,1.226,2.28,1.838,3.982,1.838c1.77,0,3.148-0.578,4.136-1.736
		c0.986-1.157,1.48-2.791,1.48-4.902V76.217z"/>
	<path fill="#E0AC69" d="M512.482,46.705v51.773h-10.416v-5.004h-0.204c-1.09,1.634-2.4,2.979-3.932,4.034
		c-1.532,1.055-3.489,1.583-5.872,1.583c-1.294,0-2.588-0.222-3.88-0.664c-1.294-0.442-2.451-1.174-3.472-2.195
		c-1.021-1.021-1.839-2.331-2.451-3.932c-0.612-1.599-0.919-3.556-0.919-5.872V46.705h10.416v35.843
		c0,1.907,0.441,3.405,1.327,4.493c0.884,1.09,2.145,1.634,3.778,1.634c1.974,0,3.335-0.613,4.085-1.838
		c0.748-1.226,1.123-2.995,1.123-5.31V46.705H512.482z"/>
	<path fill="#E0AC69" d="M521.06,46.705V30.979h10.416v15.726h6.433v8.169h-6.433v28.695c0,1.225,0.118,2.179,0.357,2.859
		c0.237,0.682,0.628,1.192,1.174,1.532c0.544,0.342,1.208,0.546,1.991,0.613c0.782,0.069,1.752,0.102,2.91,0.102v9.803h-4.288
		c-2.384,0-4.376-0.374-5.975-1.123c-1.6-0.749-2.876-1.701-3.829-2.859c-0.954-1.157-1.651-2.467-2.094-3.932
		c-0.443-1.463-0.663-2.875-0.663-4.238V54.875h-5.208v-8.169H521.06z"/>
	<path fill="#E0AC69" d="M541.891,36.188V25.771h10.416v10.416H541.891z M541.891,98.478V46.705h10.416v51.773H541.891z"/>
	<path fill="#E0AC69" d="M562.21,98.478V54.875h-5.105v-8.169h5.105v-7.046c0-2.518,0.373-4.646,1.123-6.382
		c0.749-1.736,1.77-3.182,3.063-4.34c1.226-1.157,2.638-1.974,4.238-2.451c1.599-0.476,3.25-0.715,4.952-0.715h4.8v9.803h-4.697
		c-2.042,0-3.063,1.192-3.063,3.574v7.557h7.761v8.169h-7.761v43.604H562.21z"/>
	<path fill="#E0AC69" d="M614.697,46.705v51.773h-10.416v-5.004h-0.204c-1.09,1.634-2.4,2.979-3.932,4.034
		c-1.532,1.055-3.489,1.583-5.872,1.583c-1.294,0-2.588-0.222-3.88-0.664c-1.294-0.442-2.451-1.174-3.472-2.195
		c-1.021-1.021-1.839-2.331-2.451-3.932c-0.612-1.599-0.919-3.556-0.919-5.872V46.705h10.416v35.843
		c0,1.907,0.441,3.405,1.327,4.493c0.884,1.09,2.145,1.634,3.778,1.634c1.974,0,3.335-0.613,4.085-1.838
		c0.748-1.226,1.123-2.995,1.123-5.31V46.705H614.697z"/>
	<path fill="#E0AC69" d="M622.66,25.771h10.416v58.104c0,1.975,0.357,3.319,1.072,4.034s2.059,1.174,4.034,1.378v9.803
		c-2.384,0-4.528-0.188-6.434-0.562c-1.907-0.374-3.541-1.106-4.901-2.196c-1.363-1.021-2.4-2.467-3.115-4.34
		c-0.715-1.872-1.072-4.34-1.072-7.403V25.771z"/>
</g>
</svg>
