<?xml version="1.0" encoding="utf-8"?>
<!-- Generator: Adobe Illustrator 16.0.0, SVG Export Plug-In . SVG Version: 6.00 Build 0)  -->
<!DOCTYPE svg PUBLIC "-//W3C//DTD SVG 1.1//EN" "http://www.w3.org/Graphics/SVG/1.1/DTD/svg11.dtd">
<svg version="1.1" id="Layer_1" xmlns="http://www.w3.org/2000/svg" xmlns:xlink="http://www.w3.org/1999/xlink" x="0px" y="0px"
	 width="426px" height="132.362px" viewBox="0 0 426 132.362" enable-background="new 0 0 426 132.362" xml:space="preserve">
<g>
	<g>
		<path fill="#8D5524" d="M155.45,61.651c0.58,1.017,0.943,2.323,0.943,3.63c0,1.162-0.29,2.25-0.799,3.195L137.953,98.75
			c-0.653,1.017-1.452,1.452-2.323,1.452c-0.581,0-1.234-0.218-1.815-0.508c-0.943-0.509-1.597-1.234-1.597-2.179
			c0-0.436,0.145-1.016,0.508-1.524l16.844-28.822c0.29-0.653,0.508-1.308,0.508-1.96c0-0.726-0.218-1.379-0.508-2.033
			l-16.844-28.75c-0.363-0.581-0.508-1.089-0.508-1.597c0-0.944,0.653-1.67,1.597-2.178c0.581-0.291,1.162-0.508,1.742-0.508
			c0.944,0,1.743,0.436,2.396,1.524L155.45,61.651z"/>
	</g>
	<g>
		<path fill="#8D5524" d="M118.104,42.513c0-3.049,2.178-5.01,5.009-5.01c2.687,0,5.01,1.96,5.01,5.01s-2.323,5.009-5.01,5.009
			C120.282,47.522,118.104,45.562,118.104,42.513z M120.209,54.564c0-1.67,1.38-2.469,2.904-2.469c1.452,0,2.832,0.799,2.904,2.469
			l1.017,37.172c0.072,2.033-1.524,3.34-3.848,3.34c-2.396,0-3.993-1.307-3.993-3.34L120.209,54.564z"/>
	</g>
	<g>
		<path fill="#C68642" d="M220.93,100.572h-9v-1.44h7.56V30.588h-7.56v-1.44h9V100.572z"/>
	</g>
	<g>
		<path fill="#FFDBAC" d="M191.864,99.913c1.69-6.004,2.855-12.211,3.497-18.623c0.641-6.411,0.962-12.853,0.962-19.323
			c0-6.003-0.394-11.73-1.18-17.181c-0.787-5.449-1.88-10.739-3.279-15.869h2.973c1.749,2.623,3.279,5.377,4.591,8.263
			s2.404,5.902,3.278,9.049c0.815,3.147,1.442,6.267,1.88,9.355c0.438,3.09,0.656,6.033,0.656,8.831c0,2.973-0.234,6.033-0.7,9.181
			c-0.467,3.147-1.137,6.295-2.011,9.443c-1.866,6.295-4.431,11.919-7.694,16.874H191.864z"/>
	</g>
	<g>
		<path fill="#E0AC69" d="M183.145,71.627c-0.377,0-0.795,0.04-1.252,0.121c-0.458,0.08-0.876,0.242-1.252,0.484
			c-0.377,0.242-0.687,0.62-0.929,1.131c-0.242,0.513-0.363,1.172-0.363,1.979v11.633c0,8.831-4.013,13.248-12.037,13.248h-9.37
			V86.571H164c0.484,0,0.794-0.147,0.929-0.444c0.134-0.295,0.202-0.605,0.202-0.929V73.727c0-1.723,0.255-3.136,0.768-4.24
			c0.511-1.104,1.09-1.979,1.736-2.626c0.754-0.753,1.616-1.319,2.585-1.696c-0.969-0.376-1.831-0.941-2.585-1.696
			c-0.646-0.646-1.226-1.521-1.736-2.625c-0.513-1.103-0.768-2.517-0.768-4.241V45.13c0-0.323-0.068-0.633-0.202-0.929
			c-0.135-0.295-0.444-0.444-0.929-0.444h-6.059V30.104h9.37c8.024,0,12.037,4.417,12.037,13.249v11.632
			c0,0.808,0.121,1.468,0.363,1.979c0.242,0.512,0.552,0.889,0.929,1.131c0.376,0.242,0.794,0.404,1.252,0.485
			c0.457,0.081,0.875,0.121,1.252,0.121h1.777v12.925H183.145z"/>
	</g>
	<g>
		<path fill="#8D5524" d="M108.402,31.667c0.653-1.089,1.452-1.524,2.396-1.524c0.58,0,1.161,0.218,1.742,0.508
			c0.943,0.508,1.597,1.234,1.597,2.178c0,0.508-0.145,1.017-0.508,1.597l-16.844,28.75c-0.29,0.653-0.508,1.307-0.508,2.033
			c0,0.653,0.218,1.307,0.508,1.96l16.844,28.822c0.363,0.509,0.508,1.089,0.508,1.524c0,0.944-0.653,1.67-1.597,2.179
			c-0.581,0.29-1.234,0.508-1.815,0.508c-0.871,0-1.67-0.436-2.323-1.452L90.761,68.476c-0.509-0.944-0.799-2.033-0.799-3.195
			c0-1.307,0.363-2.613,0.943-3.63L108.402,31.667z"/>
	</g>
	<g>
		<path fill="#C68642" d="M25.426,29.148h9v1.44h-7.56v68.544h7.56v1.44h-9V29.148z"/>
	</g>
	<g>
		<path fill="#FFDBAC" d="M51.519,99.913c-3.264-4.955-5.828-10.579-7.694-16.874c-0.874-3.148-1.544-6.296-2.011-9.443
			c-0.466-3.147-0.7-6.208-0.7-9.181c0-2.798,0.219-5.74,0.656-8.831c0.438-3.089,1.064-6.208,1.88-9.355
			c0.874-3.147,1.967-6.164,3.278-9.049s2.842-5.64,4.591-8.263h2.973c-1.399,5.13-2.492,10.42-3.279,15.869
			c-0.786,5.451-1.18,11.178-1.18,17.181c0,6.47,0.321,12.912,0.962,19.323c0.642,6.412,1.807,12.619,3.497,18.623H51.519z"/>
	</g>
	<g>
		<path fill="#E0AC69" d="M61.434,71.627V58.702h1.777c0.377,0,0.795-0.041,1.252-0.121c0.458-0.081,0.876-0.243,1.252-0.485
			c0.377-0.242,0.687-0.619,0.929-1.131c0.242-0.511,0.363-1.171,0.363-1.979V43.353c0-8.832,4.013-13.249,12.037-13.249h9.37
			v13.652h-6.059c-0.484,0-0.794,0.149-0.929,0.444c-0.134,0.296-0.202,0.606-0.202,0.929v11.471c0,1.724-0.255,3.138-0.768,4.241
			c-0.511,1.104-1.09,1.979-1.736,2.625c-0.754,0.755-1.616,1.32-2.585,1.696c0.969,0.377,1.831,0.943,2.585,1.696
			c0.646,0.646,1.226,1.522,1.736,2.626c0.513,1.104,0.768,2.518,0.768,4.24v11.472c0,0.323,0.068,0.634,0.202,0.929
			c0.135,0.297,0.444,0.444,0.929,0.444h6.059v13.652h-9.37c-8.024,0-12.037-4.417-12.037-13.248V75.343
			c0-0.808-0.121-1.467-0.363-1.979c-0.242-0.511-0.552-0.889-0.929-1.131c-0.376-0.242-0.794-0.404-1.252-0.484
			c-0.457-0.081-0.875-0.121-1.252-0.121H61.434z"/>
	</g>
	<g>
		<path fill="#8D5524" d="M248.566,54.867l-6.646-25.439h5.366l3.916,16.672l3.62-16.672h5.283l3.48,16.672l4.035-16.672h5.439
			l-6.756,25.439h-5.263l-3.611-16.36l-3.553,16.36H248.566z"/>
		<path fill="#8D5524" d="M288.055,46.795l5.486,1.125c-0.736,2.555-1.879,4.452-3.431,5.689c-1.551,1.238-3.438,1.856-5.659,1.856
			c-3.087,0-5.469-1.032-7.147-3.095c-1.983-2.4-2.974-5.759-2.974-10.079c0-4.256,0.997-7.663,2.994-10.223
			c1.692-2.16,3.88-3.24,6.562-3.24c2.986,0,5.326,1.104,7.019,3.311c1.948,2.527,2.923,6.254,2.923,11.18l-0.024,0.768h-13.821
			c0.032,2.02,0.484,3.583,1.357,4.689s1.926,1.659,3.16,1.659C286.277,50.436,287.462,49.222,288.055,46.795z M288.343,39.968
			c-0.048-1.988-0.472-3.483-1.27-4.485c-0.799-1.002-1.749-1.503-2.851-1.503c-1.166,0-2.148,0.521-2.946,1.563
			c-0.814,1.058-1.214,2.533-1.198,4.425H288.343z"/>
		<path fill="#FFDBAC" d="M313.614,37.166l-5.007-1.102c0.607-2.571,1.609-4.419,3.007-5.545c1.396-1.125,3.405-1.688,6.024-1.688
			c2.331,0,4.111,0.328,5.342,0.983c1.229,0.655,2.107,1.547,2.635,2.673c0.526,1.127,0.79,3.177,0.79,6.15l-0.048,7.864
			c0,2.206,0.088,3.849,0.264,4.927c0.176,1.079,0.503,2.226,0.982,3.44h-5.462l-0.719-2.779c-0.942,1.118-1.952,1.96-3.03,2.527
			c-1.077,0.566-2.224,0.85-3.437,0.85c-2.028,0-3.689-0.683-4.982-2.05c-1.294-1.367-1.94-3.187-1.94-5.458
			c0-1.439,0.264-2.694,0.79-3.766c0.527-1.071,1.27-1.927,2.228-2.566s2.491-1.208,4.6-1.703c2.555-0.591,4.336-1.143,5.342-1.655
			c0-1.413-0.101-2.34-0.3-2.782c-0.2-0.442-0.567-0.803-1.102-1.084c-0.535-0.281-1.29-0.422-2.264-0.422
			c-0.99,0-1.769,0.224-2.336,0.671C314.425,35.098,313.965,35.936,313.614,37.166z M320.992,42.651
			c-0.703,0.288-1.797,0.625-3.282,1.009c-1.709,0.449-2.826,0.945-3.354,1.49c-0.526,0.544-0.79,1.25-0.79,2.114
			c0,0.977,0.291,1.798,0.874,2.462s1.313,0.997,2.192,0.997c0.782,0,1.557-0.268,2.323-0.805s1.297-1.173,1.593-1.91
			c0.295-0.737,0.443-2.075,0.443-4.013V42.651z"/>
		<path fill="#FFDBAC" d="M337.16,54.867h-5.533V29.428h5.126v3.617c0.878-1.692,1.665-2.818,2.359-3.377s1.497-0.838,2.407-0.838
			c1.262,0,2.467,0.423,3.617,1.27l-1.725,5.869c-0.91-0.734-1.772-1.102-2.587-1.102c-0.767,0-1.441,0.284-2.024,0.852
			s-1.002,1.595-1.258,3.082c-0.256,1.487-0.383,4.221-0.383,8.202V54.867z"/>
		<path fill="#FFDBAC" d="M359.629,46.795l5.486,1.125c-0.736,2.555-1.879,4.452-3.431,5.689c-1.551,1.238-3.438,1.856-5.659,1.856
			c-3.087,0-5.469-1.032-7.147-3.095c-1.983-2.4-2.974-5.759-2.974-10.079c0-4.256,0.997-7.663,2.994-10.223
			c1.692-2.16,3.88-3.24,6.562-3.24c2.986,0,5.326,1.104,7.019,3.311c1.948,2.527,2.923,6.254,2.923,11.18l-0.024,0.768h-13.821
			c0.032,2.02,0.484,3.583,1.357,4.689s1.926,1.659,3.16,1.659C357.852,50.436,359.036,49.222,359.629,46.795z M359.917,39.968
			c-0.048-1.988-0.472-3.483-1.27-4.485c-0.799-1.002-1.749-1.503-2.851-1.503c-1.166,0-2.148,0.521-2.946,1.563
			c-0.814,1.058-1.214,2.533-1.198,4.425H359.917z"/>
		<path fill="#E0AC69" d="M244.363,100.245V65.129h5.533v12.624c0.846-1.182,1.774-2.068,2.786-2.659
			c1.013-0.591,2.101-0.887,3.265-0.887c2.455,0,4.532,1.112,6.229,3.336c1.698,2.224,2.548,5.503,2.548,9.839
			c0,4.319-0.869,7.643-2.607,9.971s-3.778,3.491-6.122,3.491c-1.196,0-2.376-0.371-3.54-1.113
			c-1.164-0.743-2.152-1.816-2.966-3.222v3.736H244.363z M249.849,86.974c0,2.194,0.208,3.868,0.623,5.021
			c0.415,1.154,1.006,2.031,1.772,2.631c0.767,0.601,1.573,0.901,2.419,0.901c1.214,0,2.252-0.637,3.114-1.91
			s1.294-3.287,1.294-6.042c0-2.899-0.436-4.993-1.306-6.282c-0.871-1.29-1.977-1.935-3.317-1.935c-1.278,0-2.364,0.625-3.258,1.874
			C250.296,82.48,249.849,84.395,249.849,86.974z"/>
		<path fill="#E0AC69" d="M281.323,92.173l5.486,1.126c-0.736,2.555-1.879,4.451-3.431,5.688c-1.551,1.238-3.438,1.856-5.659,1.856
			c-3.087,0-5.469-1.031-7.147-3.096c-1.983-2.399-2.974-5.759-2.974-10.078c0-4.256,0.997-7.663,2.994-10.223
			c1.692-2.16,3.88-3.24,6.562-3.24c2.986,0,5.326,1.104,7.019,3.312c1.948,2.526,2.923,6.254,2.923,11.18l-0.024,0.768h-13.821
			c0.032,2.021,0.484,3.583,1.357,4.689c0.873,1.105,1.926,1.658,3.16,1.658C279.546,95.813,280.73,94.601,281.323,92.173z
			 M281.611,85.346c-0.048-1.988-0.472-3.482-1.27-4.485c-0.799-1.002-1.749-1.503-2.851-1.503c-1.166,0-2.148,0.521-2.946,1.563
			c-0.814,1.059-1.214,2.533-1.198,4.425H281.611z"/>
		<path fill="#E0AC69" d="M295.696,82.543l-5.007-1.102c0.607-2.571,1.609-4.42,3.007-5.545c1.396-1.126,3.405-1.689,6.024-1.689
			c2.331,0,4.111,0.328,5.342,0.983c1.229,0.655,2.107,1.547,2.635,2.673c0.526,1.127,0.79,3.178,0.79,6.15l-0.048,7.863
			c0,2.206,0.088,3.85,0.264,4.928c0.176,1.079,0.503,2.226,0.982,3.44h-5.462l-0.719-2.778c-0.942,1.117-1.952,1.96-3.03,2.526
			c-1.077,0.567-2.224,0.851-3.437,0.851c-2.028,0-3.689-0.684-4.982-2.051c-1.294-1.367-1.94-3.186-1.94-5.457
			c0-1.439,0.264-2.694,0.79-3.766c0.527-1.071,1.27-1.927,2.228-2.566s2.491-1.208,4.6-1.704c2.555-0.591,4.336-1.143,5.342-1.654
			c0-1.414-0.101-2.341-0.3-2.782c-0.2-0.441-0.567-0.803-1.102-1.084c-0.535-0.281-1.29-0.422-2.264-0.422
			c-0.99,0-1.769,0.224-2.336,0.671C296.507,80.476,296.047,81.313,295.696,82.543z M303.074,88.028
			c-0.703,0.288-1.797,0.625-3.282,1.01c-1.709,0.448-2.826,0.944-3.354,1.489c-0.526,0.545-0.79,1.249-0.79,2.114
			c0,0.977,0.291,1.798,0.874,2.463c0.583,0.664,1.313,0.997,2.192,0.997c0.782,0,1.557-0.269,2.323-0.805
			c0.767-0.537,1.297-1.174,1.593-1.91c0.295-0.737,0.443-2.074,0.443-4.013V88.028z"/>
		<path fill="#E0AC69" d="M327.627,100.245v-3.806c-0.766,1.38-1.77,2.459-3.013,3.237c-1.244,0.778-2.543,1.167-3.898,1.167
			c-1.371,0-2.599-0.359-3.683-1.078c-1.084-0.72-1.893-1.742-2.427-3.069c-0.534-1.326-0.801-3.253-0.801-5.778V74.807h5.533
			v11.689c0,3.337,0.083,5.457,0.251,6.359c0.167,0.902,0.537,1.601,1.11,2.096s1.266,0.743,2.077,0.743
			c0.924,0,1.775-0.324,2.556-0.971s1.293-1.477,1.54-2.491c0.247-1.014,0.37-3.245,0.37-6.695v-10.73h5.534v25.438H327.627z"/>
		<path fill="#E0AC69" d="M348.059,74.807v5.365h-3.761V90.44c0,2.224,0.056,3.511,0.168,3.862c0.224,0.641,0.679,0.96,1.365,0.96
			c0.511,0,1.246-0.216,2.204-0.646l0.479,5.222c-1.277,0.671-2.723,1.006-4.335,1.006c-1.405,0-2.531-0.336-3.378-1.007
			c-0.847-0.672-1.413-1.639-1.7-2.902c-0.225-0.927-0.336-2.813-0.336-5.659V80.172h-2.539v-5.365h2.539v-5.055l5.533-3.929v8.983
			H348.059z"/>
		<path fill="#E0AC69" d="M351.916,71.356v-6.228h5.533v6.228H351.916z M351.916,100.245V74.807h5.533v25.438H351.916z"/>
		<path fill="#E0AC69" d="M360.684,74.807h3.065V72.89c0-2.315,0.221-3.992,0.66-5.03c0.44-1.038,1.152-1.853,2.137-2.443
			c0.984-0.591,2.196-0.887,3.637-0.887c1.568,0,3.104,0.288,4.609,0.863l-0.719,4.671c-0.895-0.256-1.748-0.384-2.562-0.384
			c-0.783,0-1.351,0.226-1.701,0.675c-0.352,0.449-0.527,1.331-0.527,2.646v1.806h4.12V80.1h-4.12v20.146h-5.533V80.1h-3.065V74.807
			z"/>
		<path fill="#E0AC69" d="M390.17,100.245v-3.806c-0.766,1.38-1.77,2.459-3.013,3.237c-1.244,0.778-2.543,1.167-3.898,1.167
			c-1.371,0-2.599-0.359-3.683-1.078c-1.084-0.72-1.893-1.742-2.427-3.069c-0.534-1.326-0.801-3.253-0.801-5.778V74.807h5.533
			v11.689c0,3.337,0.083,5.457,0.251,6.359c0.167,0.902,0.537,1.601,1.11,2.096s1.266,0.743,2.077,0.743
			c0.924,0,1.775-0.324,2.556-0.971s1.293-1.477,1.54-2.491c0.247-1.014,0.37-3.245,0.37-6.695v-10.73h5.534v25.438H390.17z"/>
		<path fill="#E0AC69" d="M401.069,100.245V65.129h5.533v35.116H401.069z"/>
	</g>
	<line fill="none" stroke="#BD947A" stroke-width="3" stroke-miterlimit="10" x1="25.295" y1="20.163" x2="221.061" y2="20.163"/>
	<line fill="none" stroke="#BD947A" stroke-width="3" stroke-miterlimit="10" x1="25.295" y1="109.163" x2="221.061" y2="109.163"/>
</g>
</svg>
